<svg width="40" height="40" viewBox="0 0 40 40" fill="none" xmlns="http://www.w3.org/2000/svg">
<rect width="40" height="40" rx="8" fill="#F3F6FC"/>
<path d="M12.1898 15.8152C14.8135 15.927 16.2169 17.3101 16.3999 19.9745C16.2779 22.649 14.8745 24.0626 12.1898 24.1948C9.49491 24.0931 8.10169 22.6795 8 19.9541C8.1322 17.3304 9.52541 15.9576 12.1898 15.8152ZM12.1593 17.7575C11.183 17.7982 10.6644 18.5304 10.6135 19.9745C10.6542 21.4796 11.1729 22.2423 12.1796 22.2728C13.2271 22.2626 13.7559 21.4897 13.7661 19.9745C13.7152 18.5203 13.1762 17.7779 12.1593 17.7575Z" fill="#142F4D"/>
<path d="M16.5933 18.1237V16.0084H23.9254V18.1135H21.5864V23.9914H18.9526V18.1135H16.5933V18.1237Z" fill="#142F4D"/>
<path d="M31.9388 19.0796H29.4677C29.366 18.2152 28.8982 17.7779 28.044 17.7576C27.0779 17.7881 26.5796 18.561 26.5694 20.0864C26.5389 21.5609 27.0575 22.283 28.1355 22.2728C28.9084 22.2626 29.3558 21.805 29.488 20.9203H31.9999C31.6846 23.0253 30.4134 24.1135 28.1863 24.1948C25.4609 24.1033 24.0474 22.6999 23.9457 20.005C24.0881 17.3813 25.4202 15.9881 27.9423 15.8051C30.3626 15.8457 31.7049 16.9339 31.9388 19.0796Z" fill="#142F4D"/>
</svg>
