<svg width="104" height="106" viewBox="0 0 104 106" fill="none" xmlns="http://www.w3.org/2000/svg">
<path d="M45.7975 3.66735C48.9905 -0.279806 55.0095 -0.279806 58.2025 3.66735C60.5173 6.52882 64.4892 7.43538 67.8163 5.86164C72.4058 3.69079 77.8287 6.30232 78.9929 11.244C79.8369 14.8264 83.0222 17.3666 86.7026 17.3923C91.7795 17.4277 95.5322 22.1335 94.437 27.0909C93.6431 30.6848 95.4108 34.3554 98.7156 35.9754C103.274 38.2101 104.614 44.0781 101.476 48.0695C99.2013 50.963 99.2013 55.037 101.476 57.9305C104.614 61.9219 103.274 67.7899 98.7156 70.0246C95.4108 71.6446 93.6431 75.3152 94.437 78.9091C95.5322 83.8665 91.7795 88.5723 86.7026 88.6077C83.0222 88.6334 79.8369 91.1736 78.9929 94.756C77.8287 99.6977 72.4058 102.309 67.8163 100.138C64.4892 98.5646 60.5173 99.4712 58.2025 102.333C55.0095 106.28 48.9905 106.28 45.7975 102.333C43.4827 99.4712 39.5108 98.5646 36.1837 100.138C31.5942 102.309 26.1713 99.6977 25.0071 94.756C24.1631 91.1736 20.9778 88.6334 17.2974 88.6077C12.2205 88.5723 8.4678 83.8665 9.56296 78.9091C10.3569 75.3152 8.58923 71.6446 5.28442 70.0246C0.725699 67.7899 -0.61364 61.9219 2.52403 57.9305C4.79866 55.037 4.79866 50.963 2.52403 48.0695C-0.613641 44.0781 0.725699 38.2101 5.28442 35.9754C8.58923 34.3554 10.3569 30.6848 9.56296 27.0909C8.4678 22.1335 12.2205 17.4277 17.2974 17.3923C20.9778 17.3666 24.1631 14.8264 25.0071 11.244C26.1713 6.30231 31.5942 3.69079 36.1837 5.86164C39.5108 7.43538 43.4827 6.52882 45.7975 3.66735Z" fill="#619ACF"/>
<path d="M67.5 42.25L46.875 62.875L37.5 53.5" stroke="#F3F6FC" stroke-width="3" stroke-linecap="round" stroke-linejoin="round"/>
<path d="M56.545 23.3786L58.2148 16.5994L60.5054 17.1636C61.0372 17.2946 61.4483 17.4976 61.7387 17.7728C62.0318 18.0463 62.22 18.3653 62.3034 18.7299C62.3868 19.0946 62.3793 19.4766 62.281 19.876C62.1826 20.2754 62.0115 20.6183 61.7678 20.9047C61.5262 21.1916 61.2127 21.3906 60.8273 21.5017C60.4423 21.6105 59.9862 21.6 59.4587 21.4701L57.8169 21.0657L57.9963 20.3374L59.6116 20.7353C59.9758 20.825 60.2836 20.8341 60.5353 20.7627C60.787 20.6912 60.9888 20.5607 61.1408 20.3711C61.2956 20.1799 61.4064 19.9485 61.4733 19.6771C61.5401 19.4056 61.5492 19.1504 61.5004 18.9113C61.4538 18.6728 61.334 18.4654 61.141 18.2892C60.9486 18.1107 60.6681 17.9761 60.2995 17.8853L58.8563 17.5298L57.366 23.5808L56.545 23.3786Z" fill="white"/>
<path d="M64.6586 26.062C64.362 25.9131 64.1209 25.7221 63.9353 25.4891C63.7507 25.254 63.6408 24.9941 63.6057 24.7095C63.5716 24.4228 63.631 24.1271 63.784 23.8225C63.9185 23.5543 64.0805 23.3635 64.2697 23.25C64.4599 23.1344 64.6674 23.0733 64.892 23.0665C65.1166 23.0597 65.3473 23.0865 65.584 23.1469C65.8238 23.2062 66.0595 23.2762 66.2911 23.3569C66.5938 23.4631 66.8381 23.5514 67.024 23.6218C67.213 23.6912 67.3598 23.7229 67.4645 23.717C67.5712 23.7121 67.6536 23.6518 67.7118 23.536L67.724 23.5116C67.8749 23.211 67.9099 22.9361 67.829 22.687C67.7501 22.4388 67.5451 22.2317 67.214 22.0655C66.8708 21.8932 66.5639 21.8332 66.2935 21.8856C66.023 21.9381 65.8054 22.0297 65.6405 22.1606L65.0804 21.5742C65.345 21.351 65.6186 21.2112 65.9013 21.1547C66.187 21.0973 66.4665 21.0977 66.7398 21.1561C67.0162 21.2134 67.2722 21.3012 67.5078 21.4195C67.6581 21.495 67.8216 21.5999 67.9982 21.7344C68.1779 21.8678 68.3316 22.0352 68.4594 22.2367C68.5891 22.4392 68.6594 22.6817 68.6701 22.9643C68.6808 23.2468 68.5929 23.574 68.4063 23.9457L66.8585 27.029L66.1395 26.668L66.4576 26.0343L66.4211 26.016C66.3213 26.0931 66.1855 26.1609 66.0137 26.2196C65.8418 26.2783 65.641 26.3008 65.4114 26.2873C65.1817 26.2737 64.9307 26.1986 64.6586 26.062ZM65.0925 25.4711C65.3768 25.6138 65.6446 25.6783 65.8956 25.6645C66.1487 25.6517 66.3694 25.5819 66.5576 25.4551C66.7479 25.3294 66.892 25.169 66.9899 24.974L67.3202 24.3159C67.2714 24.3372 67.1876 24.3371 67.0687 24.3155C66.9528 24.293 66.8223 24.2593 66.677 24.2143C66.5348 24.1683 66.3966 24.1219 66.2625 24.0749C66.1315 24.0269 66.0248 23.9886 65.9426 23.9601C65.7435 23.8906 65.5489 23.8425 65.3589 23.8158C65.1719 23.7881 65.0016 23.8031 64.8481 23.8607C64.6975 23.9174 64.5764 24.0372 64.4846 24.22C64.3592 24.4698 64.3568 24.7051 64.4774 24.9258C64.6011 25.1456 64.8061 25.3273 65.0925 25.4711Z" fill="white"/>
<path d="M74.0444 25.5841L73.6323 26.1273L71.4705 24.4871L71.8826 23.9439L74.0444 25.5841ZM73.2709 23.4225L73.9119 23.9088L70.8953 27.8849C70.7579 28.066 70.6811 28.2217 70.665 28.352C70.652 28.482 70.6754 28.5939 70.7354 28.6879C70.7985 28.7814 70.8771 28.8639 70.9713 28.9353C71.0419 28.9889 71.1026 29.0292 71.1533 29.0563C71.2055 29.0816 71.2472 29.1019 71.2785 29.117L70.972 29.7917C70.9162 29.775 70.8432 29.7453 70.7529 29.7025C70.6613 29.6616 70.5558 29.5958 70.4363 29.5051C70.2552 29.3677 70.1073 29.1942 69.9926 28.9845C69.8796 28.7761 69.8266 28.549 69.8334 28.3031C69.842 28.0586 69.9384 27.815 70.1224 27.5724L73.2709 23.4225Z" fill="white"/>
<path d="M79.612 30.9683L74.437 33.0631L73.886 32.4583L76.453 27.5005L77.0407 28.1457L74.9294 32.0242L74.9661 32.0646L79.0242 30.3231L79.612 30.9683Z" fill="white"/>
<path d="M77.0753 36.3082L81.4863 33.4863L81.9199 34.164L77.5089 36.9859L77.0753 36.3082ZM82.4419 33.3606C82.3574 33.2285 82.3295 33.0858 82.3583 32.9325C82.3882 32.7812 82.4664 32.6651 82.5928 32.5842C82.7191 32.5034 82.8573 32.4811 83.0073 32.5173C83.1585 32.5555 83.2764 32.6406 83.3609 32.7727C83.4454 32.9048 83.4726 33.0466 83.4427 33.1979C83.4139 33.3512 83.3364 33.4683 83.21 33.5491C83.0837 33.63 82.9449 33.6513 82.7937 33.6131C82.6437 33.5769 82.5264 33.4927 82.4419 33.3606Z" fill="white"/>
<path d="M79.1538 39.6788L83.9338 37.5407L84.2512 38.2503L83.5292 38.5732L83.5515 38.623C83.827 38.6043 84.0894 38.6762 84.3388 38.8385C84.5881 39.0008 84.7769 39.2251 84.9049 39.5114C84.9291 39.5654 84.9582 39.6333 84.9923 39.7151C85.0264 39.7969 85.0507 39.8595 85.0651 39.9029L84.3182 40.237C84.3133 40.2093 84.2971 40.148 84.2697 40.0533C84.2452 39.9596 84.2112 39.8641 84.1676 39.7666C84.0636 39.5342 83.9221 39.3485 83.7429 39.2096C83.5667 39.0718 83.3699 38.988 83.1525 38.9583C82.938 38.9298 82.7229 38.9637 82.5072 39.0602L79.4823 40.4133L79.1538 39.6788Z" fill="white"/>
<path d="M86.7766 45.2906L86.1178 45.4662L85.4188 42.8442L86.0776 42.6686L86.7766 45.2906ZM87.4936 43.1097L87.7008 43.8871L82.8783 45.1725C82.6587 45.2311 82.5024 45.3068 82.4096 45.3998C82.3196 45.4943 82.2694 45.5971 82.2589 45.7081C82.2513 45.8206 82.2627 45.934 82.2932 46.0482C82.316 46.1339 82.3391 46.203 82.3625 46.2555C82.3882 46.3075 82.4086 46.3491 82.424 46.3803L81.7678 46.7245C81.734 46.6771 81.6946 46.6088 81.6497 46.5196C81.6026 46.4311 81.5597 46.3143 81.521 46.1694C81.4625 45.9498 81.4524 45.722 81.4906 45.486C81.5294 45.2522 81.627 45.0403 81.7834 44.8505C81.9403 44.6628 82.166 44.5298 82.4602 44.4513L87.4936 43.1097Z" fill="white"/>
<path d="M82.198 48.9391L87.3963 48.3086L87.4931 49.1073L82.2949 49.7378L82.198 48.9391ZM88.3119 48.6097C88.293 48.454 88.3298 48.3133 88.4221 48.1876C88.5148 48.0642 88.6355 47.9935 88.7844 47.9754C88.9333 47.9574 89.0675 47.9972 89.187 48.0949C89.3067 48.1948 89.376 48.3226 89.3949 48.4783C89.4138 48.634 89.3769 48.7735 89.2843 48.897C89.1919 49.0226 89.0713 49.0945 88.9224 49.1125C88.7734 49.1306 88.6391 49.0897 88.5194 48.9897C88.4 48.892 88.3308 48.7653 88.3119 48.6097Z" fill="white"/>
<path d="M85.7709 53.9059L82.6254 53.7385L82.6681 52.9351L87.8971 53.2133L87.8558 53.9895L87.0388 53.946L87.0351 54.0141C87.2942 54.1508 87.4976 54.3482 87.6454 54.6064C87.7956 54.8648 87.8601 55.1914 87.8391 55.5863C87.8203 55.9403 87.7312 56.2462 87.5718 56.5041C87.4147 56.762 87.1858 56.9569 86.8852 57.0889C86.5869 57.2209 86.2153 57.2751 85.7705 57.2515L82.4479 57.0747L82.4906 56.2713L85.7587 56.4452C86.1695 56.467 86.4952 56.3774 86.7358 56.1762C86.9786 55.9752 87.1099 55.6886 87.1297 55.3164C87.1434 55.0599 87.1 54.8278 86.9995 54.6199C86.8989 54.4142 86.745 54.2479 86.5379 54.1208C86.3307 53.9937 86.075 53.922 85.7709 53.9059Z" fill="white"/>
<path d="M86.6264 63.1127L85.964 62.9514L86.6059 60.3148L87.2684 60.4761L86.6264 63.1127ZM88.3002 61.5413L88.1099 62.3231L83.2606 61.1424C83.0398 61.0887 82.8664 61.0804 82.7404 61.1175C82.6161 61.1574 82.5228 61.2236 82.4605 61.316C82.3999 61.4112 82.3556 61.5162 82.3277 61.6311C82.3067 61.7172 82.2939 61.7889 82.2893 61.8463C82.2869 61.9042 82.285 61.9505 82.2835 61.9852L81.5426 61.9732C81.5356 61.9154 81.5338 61.8366 81.537 61.7368C81.5381 61.6365 81.5563 61.5134 81.5918 61.3677C81.6456 61.1469 81.7457 60.942 81.8923 60.7532C82.0383 60.5665 82.2254 60.4273 82.4536 60.3354C82.6813 60.2458 82.9431 60.2371 83.239 60.3091L88.3002 61.5413Z" fill="white"/>
<path d="M80.1743 65.5581C80.3103 65.2554 80.4907 65.0063 80.7155 64.8108C80.9424 64.6162 81.1973 64.4952 81.4801 64.4479C81.7651 64.4014 82.063 64.448 82.374 64.5877C82.6477 64.7106 82.8453 64.8641 82.9669 65.0483C83.0906 65.2334 83.1606 65.438 83.1771 65.6621C83.1935 65.8863 83.1767 66.1179 83.1266 66.357C83.0777 66.5991 83.0179 66.8376 82.9473 67.0725C82.8543 67.3795 82.7766 67.6274 82.7142 67.8161C82.653 68.0079 82.6277 68.1559 82.6381 68.2603C82.6476 68.3667 82.7115 68.4464 82.8296 68.4995L82.8545 68.5107C83.1614 68.6485 83.4375 68.6716 83.6829 68.58C83.9274 68.4905 84.1255 68.2768 84.2773 67.9388C84.4347 67.5884 84.4813 67.2793 84.4173 67.0114C84.3532 66.7434 84.2523 66.5299 84.1145 66.3709L84.6761 65.786C84.9105 66.0407 85.062 66.3081 85.1306 66.588C85.2003 66.871 85.2119 67.1502 85.1654 67.4258C85.12 67.7044 85.0433 67.9639 84.9353 68.2044C84.8664 68.3579 84.7686 68.5257 84.6419 68.708C84.5164 68.8933 84.3557 69.0541 84.16 69.1904C83.9633 69.3288 83.724 69.4094 83.4422 69.4323C83.1603 69.4552 82.8297 69.3815 82.4503 69.2111L79.3031 67.7977L79.6327 67.0638L80.2795 67.3543L80.2963 67.317C80.215 67.2207 80.1413 67.0879 80.0753 66.9187C80.0092 66.7496 79.978 66.5499 79.9817 66.3199C79.9854 66.0898 80.0496 65.8359 80.1743 65.5581ZM80.7834 65.9661C80.653 66.2564 80.6002 66.5266 80.6248 66.7769C80.6485 67.0292 80.7277 67.2466 80.8625 67.4292C80.9963 67.6139 81.1627 67.7509 81.3618 67.8403L82.0335 68.142C82.0102 68.0941 82.0067 68.0103 82.0231 67.8906C82.0406 67.7739 82.0687 67.642 82.1073 67.495C82.1471 67.3509 82.1876 67.2109 82.2287 67.0749C82.271 66.9419 82.3046 66.8337 82.3297 66.7502C82.3904 66.5483 82.4301 66.3519 82.4486 66.1609C82.4682 65.9729 82.4459 65.8034 82.3817 65.6525C82.3186 65.5045 82.1937 65.3887 82.0071 65.3049C81.7521 65.1904 81.5169 65.1981 81.3016 65.3281C81.0874 65.4611 80.9146 65.6738 80.7834 65.9661Z" fill="white"/>
<path d="M75.5238 73.6554L80.5217 78.5305L79.9314 79.1357L75.4703 74.7844L73.2042 77.1076L72.6673 76.5839L75.5238 73.6554Z" fill="white"/>
<path d="M70.8587 78.0996L73.935 82.3371L73.284 82.8097L70.2077 78.5723L70.8587 78.0996ZM74.1167 83.2836C74.2436 83.1915 74.3844 83.1553 74.5391 83.175C74.692 83.196 74.8125 83.2672 74.9006 83.3886C74.9888 83.5099 75.0191 83.6466 74.9918 83.7984C74.9626 83.9516 74.8845 84.0743 74.7576 84.1664C74.6307 84.2586 74.4908 84.2941 74.3379 84.2731C74.1832 84.2534 74.0618 84.1829 73.9737 84.0615C73.8856 83.9401 73.8561 83.8028 73.8853 83.6496C73.9127 83.4978 73.9898 83.3758 74.1167 83.2836Z" fill="white"/>
<path d="M65.6238 81.2875C66.077 81.0658 66.5169 80.9746 66.9435 81.0139C67.369 81.0563 67.7589 81.2147 68.1133 81.4892C68.4666 81.7667 68.7611 82.1464 68.9968 82.6282C69.2324 83.11 69.3523 83.5776 69.3565 84.031C69.3596 84.4874 69.2534 84.8961 69.0378 85.2571C68.8211 85.6211 68.5005 85.9069 68.0758 86.1146C67.8309 86.2345 67.569 86.312 67.2901 86.3471C67.0113 86.3823 66.729 86.3559 66.4431 86.2681C66.1583 86.1822 65.8842 86.0177 65.6211 85.7745C65.3579 85.5313 65.119 85.1902 64.9043 84.7513L64.7545 84.445L68.3804 82.6716L68.686 83.2963L65.7951 84.7103C65.9249 84.9757 66.0938 85.1866 66.3018 85.3429C66.5078 85.5002 66.7372 85.5917 66.9901 85.6173C67.2409 85.6438 67.497 85.5932 67.7583 85.4654C68.0462 85.3246 68.2603 85.1313 68.4007 84.8856C68.54 84.6429 68.6104 84.3807 68.6119 84.0992C68.6133 83.8176 68.5506 83.5472 68.4238 83.2879L68.2201 82.8715C68.0464 82.5162 67.8378 82.245 67.5945 82.0579C67.3502 81.8738 67.0863 81.7714 66.8029 81.7506C66.5205 81.7319 66.2333 81.7939 65.9413 81.9367C65.7515 82.0296 65.593 82.14 65.4658 82.268C65.3376 82.399 65.2438 82.546 65.1844 82.7092C65.1261 82.8743 65.1062 83.0536 65.1248 83.2469L64.3308 83.3924C64.2884 83.1196 64.3101 82.8509 64.3957 82.5864C64.4824 82.3239 64.6289 82.0802 64.8352 81.8554C65.0424 81.6325 65.3053 81.4432 65.6238 81.2875Z" fill="white"/>
<path d="M60.7338 88.8039L60.5522 88.1467L63.1679 87.424L63.3494 88.0812L60.7338 88.8039ZM62.9212 89.5011L62.1457 89.7154L60.8165 84.9047C60.756 84.6857 60.6788 84.5301 60.585 84.4382C60.4897 84.349 60.3864 84.2997 60.2754 84.2903C60.1627 84.2837 60.0495 84.2961 59.9356 84.3276C59.8501 84.3512 59.7812 84.375 59.7289 84.3988C59.6771 84.4249 59.6358 84.4458 59.6047 84.4615L59.2545 83.8084C59.3016 83.7742 59.3696 83.7342 59.4583 83.6884C59.5465 83.6405 59.6628 83.5966 59.8074 83.5566C60.0265 83.4961 60.2542 83.4839 60.4905 83.5199C60.7246 83.5566 60.9373 83.6523 61.1286 83.807C61.3177 83.9622 61.4528 84.1866 61.5339 84.4802L62.9212 89.5011Z" fill="white"/>
<path d="M53.9402 86.7575L54.2 89.842L53.3983 89.9095L52.9588 84.6917L53.7605 84.6241L53.8349 85.5074L53.8892 85.5028C53.9892 85.2275 54.1604 84.9861 54.403 84.7787C54.6457 84.5735 54.9641 84.4543 55.3581 84.4211C55.6843 84.3936 55.9802 84.4406 56.2458 84.5619C56.5117 84.6855 56.7293 84.8861 56.8986 85.1637C57.0682 85.4437 57.1717 85.8056 57.2091 86.2495L57.4884 89.565L56.6866 89.6325L56.4119 86.3714C56.3799 85.9909 56.2479 85.6964 56.0159 85.4879C55.7817 85.2795 55.4981 85.1894 55.1652 85.2174C54.9659 85.2342 54.7675 85.3022 54.57 85.4215C54.3703 85.5409 54.209 85.7119 54.0864 85.9343C53.9614 86.157 53.9127 86.4314 53.9402 86.7575Z" fill="white"/>
<path d="M45.3032 89.3768L47.8974 84.4332L48.7088 84.5385L49.9551 89.9805L49.0896 89.8682L48.1933 85.5441L48.1392 85.5371L46.1687 89.4891L45.3032 89.3768Z" fill="white"/>
<path d="M41.9544 82.959C42.3993 83.1186 42.7517 83.3646 43.0115 83.697C43.2692 84.0285 43.4239 84.4184 43.4754 84.8668C43.5249 85.3143 43.4582 85.7927 43.2755 86.3018C43.0913 86.8152 42.8374 87.2299 42.5138 87.546C42.1882 87.8614 41.8205 88.065 41.4108 88.157C40.9989 88.2483 40.5705 88.214 40.1256 88.0544C39.6806 87.8947 39.3293 87.649 39.0716 87.3175C38.8118 86.9852 38.6575 86.5942 38.6089 86.1445C38.558 85.694 38.6248 85.2121 38.809 84.6987C38.9917 84.1896 39.2456 83.7784 39.5705 83.4652C39.8932 83.1513 40.2605 82.9487 40.6724 82.8574C41.0821 82.7654 41.5094 82.7993 41.9544 82.959ZM41.7102 83.6392C41.3722 83.5179 41.063 83.5047 40.7827 83.5997C40.5023 83.6946 40.259 83.8645 40.0529 84.1092C39.8467 84.354 39.6845 84.6411 39.5663 84.9705C39.448 85.2999 39.3903 85.6257 39.393 85.9478C39.3957 86.2699 39.4747 86.5579 39.6299 86.8116C39.7851 87.0653 40.0317 87.2528 40.3697 87.3741C40.7077 87.4954 41.0173 87.5075 41.2984 87.4104C41.5796 87.3133 41.8236 87.1413 42.0305 86.8944C42.2375 86.6476 42.4 86.3594 42.5183 86.03C42.6365 85.7006 42.6939 85.3759 42.6904 85.0559C42.6869 84.7359 42.6072 84.4501 42.4512 84.1985C42.2952 83.9469 42.0482 83.7605 41.7102 83.6392Z" fill="white"/>
<path d="M32.2562 82.7758L32.9776 82.9849C32.9523 83.1112 32.9472 83.246 32.9623 83.3893C32.9742 83.5334 33.0239 83.6769 33.1114 83.82C33.199 83.963 33.342 84.0965 33.5406 84.2205C33.8124 84.3901 34.0781 84.4689 34.3376 84.4567C34.5939 84.4452 34.7816 84.344 34.9007 84.1531C35.0066 83.9835 35.0286 83.811 34.9665 83.6356C34.9045 83.4603 34.7629 83.258 34.5416 83.0288L33.9833 82.4553C33.6463 82.111 33.4424 81.7788 33.3716 81.4587C33.2996 81.1405 33.3605 80.8262 33.5542 80.5158C33.7131 80.2613 33.9283 80.0795 34.2 79.9704C34.4698 79.8602 34.7709 79.8284 35.1034 79.8752C35.4358 79.922 35.7746 80.053 36.1198 80.2685C36.5728 80.5512 36.8865 80.8836 37.0606 81.2656C37.2348 81.6476 37.2435 82.0522 37.0867 82.4794L36.3378 82.237C36.4253 81.9594 36.4206 81.7073 36.3236 81.4807C36.2247 81.2529 36.0354 81.0517 35.7559 80.8772C35.4378 80.6787 35.1431 80.5885 34.8718 80.6067C34.5974 80.6257 34.4007 80.7306 34.2815 80.9215C34.1853 81.0757 34.1586 81.2386 34.2016 81.4101C34.2434 81.5835 34.3599 81.7661 34.551 81.9577L35.1831 82.5933C35.5297 82.9436 35.7353 83.2796 35.7998 83.6011C35.8612 83.9234 35.7962 84.2379 35.6049 84.5444C35.4485 84.7951 35.2397 84.9729 34.9786 85.0778C34.7156 85.1816 34.4274 85.212 34.1139 85.169C33.7986 85.1249 33.4847 85.0054 33.1724 84.8104C32.7328 84.5361 32.4478 84.2243 32.3175 83.875C32.1853 83.5246 32.1648 83.1582 32.2562 82.7758Z" fill="white"/>
<path d="M29.1078 74.8595L23.5892 79.1364L22.1441 77.2717C21.81 76.8406 21.6094 76.4296 21.5423 76.0388C21.4734 75.6494 21.515 75.2894 21.667 74.9587C21.8191 74.6281 22.0577 74.3368 22.3829 74.0848C22.708 73.8328 23.0478 73.6758 23.4024 73.6139C23.7569 73.5519 24.1125 73.6026 24.4692 73.7661C24.8241 73.931 25.1673 74.2272 25.4986 74.6547L26.6681 76.1637L26.0645 76.6315L24.9117 75.1441C24.6834 74.8494 24.4565 74.6457 24.2311 74.5329C24.0042 74.4183 23.7805 74.3818 23.5597 74.4235C23.3358 74.4648 23.1134 74.5711 22.8924 74.7423C22.6715 74.9135 22.5104 75.1045 22.4091 75.3152C22.3079 75.526 22.2827 75.7568 22.3335 76.0079C22.3825 76.2603 22.5225 76.5356 22.7536 76.8338L23.6642 78.0087L28.5899 74.1912L29.1078 74.8595ZM24.6156 74.1832L26.0421 70.9038L26.6435 71.6799L25.2003 74.9376L24.6156 74.1832Z" fill="white"/>
<path d="M24.16 67.1993C24.3728 67.6568 24.4554 68.0984 24.4079 68.5241C24.3573 68.9487 24.1913 69.3355 23.91 69.6845C23.6257 70.0323 23.2404 70.3194 22.7541 70.5457C22.2678 70.772 21.798 70.8828 21.3446 70.8782C20.8882 70.8724 20.4817 70.7583 20.1249 70.5357C19.7652 70.3121 19.4856 69.9859 19.2862 69.5573C19.1711 69.3101 19.0987 69.0467 19.0689 68.7673C19.0392 68.4878 19.071 68.2061 19.1644 67.922C19.2558 67.6388 19.4256 67.368 19.6738 67.1096C19.9221 66.8512 20.2677 66.619 20.7108 66.4128L21.0198 66.269L22.7226 69.9286L22.0921 70.222L20.7345 67.3042C20.4666 67.4289 20.2525 67.5937 20.0922 67.7986C19.9309 68.0015 19.835 68.2291 19.8045 68.4814C19.7731 68.7317 19.8187 68.9887 19.9414 69.2525C20.0766 69.543 20.2657 69.7608 20.5087 69.906C20.7487 70.05 21.0094 70.1254 21.2909 70.1324C21.5723 70.1393 21.8439 70.0818 22.1056 69.9601L22.5259 69.7645C22.8845 69.5976 23.1597 69.3944 23.3515 69.1548C23.5402 68.914 23.6478 68.6522 23.674 68.3692C23.6982 68.0872 23.6418 67.7989 23.5047 67.5042C23.4155 67.3126 23.3082 67.152 23.1827 67.0224C23.0542 66.8916 22.909 66.795 22.747 66.7325C22.583 66.6709 22.4042 66.6476 22.2106 66.6625L22.0805 65.8657C22.3541 65.8287 22.6223 65.8556 22.8851 65.9463C23.1459 66.0381 23.3866 66.1892 23.6075 66.3998C23.8262 66.6114 24.0104 66.8779 24.16 67.1993Z" fill="white"/>
<path d="M17.539 60.3607L17.8985 61.0202C17.7911 61.0912 17.6919 61.1825 17.6007 61.2941C17.5068 61.404 17.4399 61.5404 17.4 61.7033C17.3601 61.8662 17.366 62.0618 17.4179 62.29C17.4889 62.6025 17.6201 62.8466 17.8114 63.0222C18.0001 63.1961 18.2041 63.2581 18.4236 63.2083C18.6186 63.164 18.7565 63.058 18.8373 62.8905C18.9181 62.723 18.962 62.48 18.9689 62.1615L18.9828 61.3612C18.9899 60.8795 19.0822 60.5008 19.2596 60.2251C19.4348 59.9499 19.7008 59.7717 20.0577 59.6907C20.3502 59.6242 20.6309 59.649 20.8996 59.7651C21.1679 59.879 21.4025 60.0704 21.6034 60.3394C21.8043 60.6084 21.9499 60.9412 22.04 61.3379C22.1583 61.8588 22.1432 62.3155 21.9947 62.7082C21.8462 63.1008 21.565 63.3919 21.1513 63.5815L20.7959 62.8791C21.0547 62.7457 21.2303 62.5648 21.3229 62.3364C21.415 62.1057 21.4245 61.8297 21.3515 61.5083C21.2685 61.1426 21.125 60.8699 20.921 60.6902C20.7143 60.5087 20.5012 60.4429 20.2818 60.4928C20.1045 60.5331 19.9701 60.6288 19.8786 60.7801C19.7849 60.9319 19.7374 61.1432 19.7359 61.4139L19.7298 62.3102C19.7252 62.803 19.6315 63.1856 19.4486 63.4578C19.263 63.7284 18.9941 63.9037 18.6417 63.9838C18.3536 64.0492 18.0803 64.0262 17.8219 63.9148C17.5631 63.8011 17.3385 63.6179 17.1482 63.3651C16.9574 63.1101 16.8213 62.8031 16.7397 62.4441C16.6249 61.9388 16.6456 61.5169 16.8018 61.1785C16.9575 60.8378 17.2032 60.5652 17.539 60.3607Z" fill="white"/>
<path d="M23.022 56.9116L15.8224 56.9801L15.815 56.2028L16.6467 56.1949L16.6458 56.0995C16.5544 56.0412 16.4377 55.9605 16.2958 55.8573C16.1516 55.7519 16.0229 55.6008 15.9096 55.4042C15.7941 55.2052 15.7347 54.9353 15.7315 54.5944C15.7273 54.1536 15.8338 53.7639 16.0511 53.4254C16.2683 53.087 16.5783 52.8215 16.981 52.6291C17.3838 52.4366 17.8601 52.3377 18.4101 52.3325C18.9646 52.3272 19.4462 52.417 19.8548 52.6017C20.2611 52.7865 20.5772 53.0449 20.8031 53.3768C21.0267 53.7088 21.1406 54.093 21.1447 54.5293C21.1479 54.8657 21.0948 55.1355 20.9854 55.3388C20.8737 55.5422 20.7468 55.6991 20.6046 55.8095C20.4602 55.92 20.3406 56.0052 20.2457 56.0652L20.2463 56.1334L23.0144 56.107L23.022 56.9116ZM18.4329 56.1643C18.8283 56.1605 19.1766 56.0992 19.4778 55.9805C19.7767 55.8617 20.0103 55.6902 20.1786 55.4658C20.3447 55.2415 20.4262 54.968 20.4231 54.6453C20.4199 54.3089 20.3286 54.0291 20.1492 53.8058C19.9675 53.5802 19.725 53.4121 19.4216 53.3013C19.116 53.1883 18.7768 53.1336 18.4041 53.1371C18.0359 53.1406 17.7047 53.2006 17.4103 53.3171C17.1137 53.4312 16.8801 53.6028 16.7095 53.8317C16.5366 54.0584 16.4518 54.3421 16.4551 54.683C16.4582 55.0103 16.5438 55.2845 16.7118 55.5056C16.8775 55.7268 17.1087 55.8928 17.4052 56.0036C17.6994 56.1144 18.042 56.168 18.4329 56.1643Z" fill="white"/>
<path d="M19.7697 46.2909L16.7439 45.6382L16.9135 44.8517L22.0322 45.9559L21.8625 46.7424L20.9961 46.5555L20.9846 46.6088C21.2186 46.7848 21.3994 47.0191 21.5269 47.3117C21.6523 47.6038 21.6732 47.9431 21.5898 48.3297C21.5208 48.6496 21.3895 48.9188 21.1958 49.1375C21 49.3556 20.7445 49.5051 20.4295 49.586C20.1122 49.6663 19.7359 49.6595 19.3004 49.5656L16.048 48.864L16.2177 48.0775L19.4168 48.7676C19.79 48.8482 20.1102 48.808 20.3775 48.647C20.6451 48.4839 20.8142 48.2391 20.8847 47.9125C20.9268 47.717 20.9198 47.5074 20.8634 47.2836C20.8075 47.0577 20.6911 46.8535 20.5142 46.6712C20.3378 46.4867 20.0896 46.3599 19.7697 46.2909Z" fill="white"/>
<path d="M22.8007 43.2701L16.4749 40.3155L16.8154 39.5866L19.1505 40.6772L19.1793 40.6155C19.122 40.5234 19.0516 40.4003 18.9681 40.2459C18.8836 40.0885 18.8327 39.8967 18.8155 39.6704C18.7972 39.4411 18.8602 39.172 19.0044 38.8632C19.191 38.4637 19.4554 38.1582 19.7975 37.9467C20.1395 37.7353 20.5338 37.6297 20.9801 37.63C21.4265 37.6303 21.8988 37.7468 22.3972 37.9795C22.8996 38.2142 23.2952 38.5031 23.584 38.8462C23.8707 39.1883 24.0442 39.5578 24.1047 39.9548C24.163 40.3508 24.0999 40.7464 23.9152 41.1418C23.7728 41.4466 23.6084 41.667 23.4219 41.8032C23.2334 41.9383 23.0511 42.025 22.8752 42.0633C22.6973 42.1006 22.5526 42.1258 22.4411 42.1389L22.4007 42.2254L23.1296 42.5659L22.8007 43.2701ZM20.7632 41.4456C21.1215 41.6129 21.4621 41.708 21.7851 41.7309C22.1059 41.7529 22.3907 41.699 22.6394 41.5693C22.886 41.4387 23.0776 41.2272 23.2142 40.9348C23.3566 40.63 23.395 40.3382 23.3296 40.0593C23.2631 39.7774 23.117 39.521 22.8912 39.2902C22.6643 39.0563 22.382 38.8605 22.0443 38.7027C21.7107 38.5469 21.3861 38.458 21.0703 38.4359C20.7534 38.4108 20.4686 38.4647 20.2159 38.5975C19.9622 38.7273 19.7631 38.9466 19.6189 39.2555C19.4804 39.552 19.4392 39.8363 19.4952 40.1083C19.5492 40.3793 19.686 40.6289 19.9056 40.8569C20.1232 41.0839 20.409 41.2801 20.7632 41.4456Z" fill="white"/>
<path d="M20.6807 32.5274L26.3871 36.5502L25.9235 37.2078L20.2171 33.185L20.6807 32.5274Z" fill="white"/>
<path d="M28.2791 34.0313L24.4191 30.493L24.9628 29.8999L28.8228 33.4383L28.2791 34.0313ZM24.0522 29.6017C23.9463 29.7173 23.8155 29.7809 23.66 29.7925C23.506 29.8024 23.3737 29.7567 23.2632 29.6553C23.1526 29.5539 23.0955 29.4261 23.0921 29.2719C23.0901 29.1159 23.1421 28.9801 23.2481 28.8645C23.354 28.7489 23.484 28.6862 23.638 28.6763C23.7935 28.6647 23.9266 28.7096 24.0372 28.8109C24.1477 28.9123 24.204 29.0409 24.206 29.1969C24.2094 29.3512 24.1582 29.4861 24.0522 29.6017Z" fill="white"/>
<path d="M30.3917 29.1643L29.7674 28.3888L29.8962 28.288L30.2628 25.0397L31.0466 24.4261L30.646 27.8742L30.5923 27.9162L30.3917 29.1643ZM30.978 31.1298L26.6743 25.6322L27.3078 25.1363L31.6115 30.6339L30.978 31.1298ZM33.5979 29.0788L30.3902 28.2996L30.4966 27.5063L34.4033 28.4484L33.5979 29.0788Z" fill="white"/>
<path d="M37.9424 26.5446C37.5171 26.751 37.0949 26.8309 36.6756 26.7843C36.2584 26.7366 35.8715 26.5745 35.515 26.2979C35.1605 26.0202 34.8651 25.6381 34.629 25.1515C34.3908 24.6608 34.2719 24.1892 34.2721 23.7369C34.2745 23.2836 34.386 22.8783 34.6067 22.5211C34.8295 22.1629 35.1535 21.8806 35.5788 21.6742C36.0041 21.4678 36.4253 21.3884 36.8426 21.4361C37.2618 21.4827 37.6492 21.6459 38.0047 21.9255C38.3622 22.2042 38.6601 22.5889 38.8982 23.0796C39.1344 23.5662 39.2508 24.0352 39.2475 24.4865C39.2463 24.9367 39.1342 25.341 38.9115 25.6992C38.6907 26.0564 38.3677 26.3382 37.9424 26.5446ZM37.6269 25.8944C37.9499 25.7376 38.1756 25.5258 38.3037 25.259C38.4319 24.9922 38.4806 24.6995 38.4498 24.381C38.419 24.0625 38.3272 23.7458 38.1744 23.4309C38.0216 23.116 37.8291 22.8469 37.597 22.6236C37.3648 22.4003 37.1037 22.2554 36.8138 22.1889C36.5239 22.1225 36.2174 22.1676 35.8944 22.3244C35.5713 22.4812 35.3462 22.694 35.219 22.9629C35.0918 23.2318 35.0441 23.5265 35.0759 23.8471C35.1077 24.1676 35.2 24.4853 35.3528 24.8002C35.5056 25.1151 35.6976 25.3832 35.9287 25.6045C36.1599 25.8257 36.42 25.9686 36.7089 26.033C36.9978 26.0974 37.3038 26.0512 37.6269 25.8944Z" fill="white"/>
<path d="M40.7988 19.5922L41.573 19.3733L43.1017 24.7795C43.1895 25.09 43.212 25.3742 43.1692 25.6319C43.1285 25.889 43.0186 26.1102 42.8396 26.2955C42.6627 26.4801 42.4124 26.6182 42.0887 26.7097C42.0625 26.7172 42.0362 26.7246 42.01 26.732C41.9838 26.7394 41.9575 26.7468 41.9313 26.7543L41.7272 26.0326C41.7534 26.0251 41.7775 26.0183 41.7994 26.0122C41.8212 26.006 41.8453 25.9992 41.8715 25.9918C42.1077 25.925 42.2607 25.8061 42.3305 25.6352C42.4009 25.4665 42.3999 25.2543 42.3275 24.9984L40.7988 19.5922ZM40.9419 18.6448C40.791 18.6874 40.6463 18.6728 40.5079 18.601C40.3717 18.5285 40.2832 18.4201 40.2424 18.2757C40.2015 18.1314 40.2202 17.9927 40.2983 17.8596C40.3786 17.7259 40.4941 17.6377 40.6451 17.595C40.796 17.5524 40.9395 17.5673 41.0757 17.6397C41.2142 17.7116 41.3038 17.8197 41.3446 17.9641C41.3854 18.1084 41.3657 18.2474 41.2854 18.3811C41.2073 18.5142 41.0928 18.6021 40.9419 18.6448Z" fill="white"/>
<path d="M48.2305 23.4493C47.7286 23.5008 47.2843 23.4343 46.8976 23.2501C46.5129 23.0633 46.2017 22.7799 45.964 22.3999C45.7283 22.0174 45.5831 21.5594 45.5284 21.0258C45.4737 20.4922 45.5228 20.012 45.6755 19.5851C45.8302 19.1557 46.0711 18.8089 46.3982 18.5447C46.7272 18.2779 47.1269 18.1204 47.5972 18.0722C47.8685 18.0444 48.141 18.0622 48.4148 18.1255C48.6886 18.1888 48.9444 18.3111 49.1823 18.4923C49.42 18.6713 49.6203 18.9204 49.7832 19.2395C49.9462 19.5587 50.0525 19.9613 50.1024 20.4474L50.1371 20.7865L46.1218 21.198L46.0509 20.5062L49.2523 20.1781C49.2222 19.8842 49.1365 19.6279 48.9953 19.4094C48.8564 19.1906 48.6727 19.0255 48.4442 18.9141C48.218 18.8025 47.9602 18.7615 47.6708 18.7912C47.3521 18.8239 47.0843 18.9313 46.8677 19.1134C46.6531 19.293 46.4964 19.5147 46.3978 19.7784C46.2992 20.0421 46.2646 20.3175 46.294 20.6047L46.3413 21.0659C46.3816 21.4593 46.4836 21.7858 46.6473 22.0455C46.813 22.3026 47.0253 22.4899 47.284 22.6073C47.5426 22.7225 47.8335 22.7635 48.1568 22.7303C48.3671 22.7088 48.554 22.6599 48.7175 22.5838C48.8831 22.5051 49.0219 22.3995 49.134 22.2669C49.2458 22.1321 49.3264 21.9708 49.3757 21.783L50.1711 21.9208C50.1166 22.1914 50.0035 22.436 49.8317 22.6546C49.6597 22.871 49.438 23.0491 49.1668 23.1889C48.8953 23.3263 48.5832 23.4132 48.2305 23.4493Z" fill="white"/>
</svg>
