<svg width="40" height="40" viewBox="0 0 40 40" fill="none" xmlns="http://www.w3.org/2000/svg">
<rect width="40" height="40" rx="8" fill="#F3F6FC"/>
<path d="M12 23.0742V25.3599H15.2915V20.3614H17.55C17.7113 20.3614 17.8696 20.3576 18.0249 20.3499L20.4575 23.0533L17.6072 25.7143H15.9457V28H18.7128L22.0802 24.8564L24.9089 28H28V25.7143H26.1487L23.8717 23.1839L26.3325 20.8866H27.9999V18.6009H25.2268L22.2491 21.3807L20.7262 19.6884C22.096 18.9822 22.8747 17.7514 22.8747 16.1444C22.8748 13.588 20.8345 12 17.55 12H14.3186H12.7153H12V14.2857H12.7153V23.0742H12ZM15.2915 14.2857H17.55C20.2985 14.2857 20.2985 15.6846 20.2985 16.1445C20.2985 16.5677 20.2983 17.7571 18.3864 18.0227C18.0873 18.0488 17.8286 18.0679 17.55 18.0679H15.2915V14.2857Z" fill="#142F4D"/>
</svg>
