<svg width="104" height="106" viewBox="0 0 104 106" fill="none" xmlns="http://www.w3.org/2000/svg">
<path d="M45.7975 3.66735C48.9905 -0.279806 55.0095 -0.279806 58.2025 3.66735C60.5173 6.52882 64.4892 7.43538 67.8163 5.86164C72.4058 3.69079 77.8287 6.30232 78.9929 11.244C79.8369 14.8264 83.0222 17.3666 86.7026 17.3923C91.7795 17.4277 95.5322 22.1335 94.437 27.0909C93.6431 30.6848 95.4108 34.3554 98.7156 35.9754C103.274 38.2101 104.614 44.0781 101.476 48.0695C99.2013 50.963 99.2013 55.037 101.476 57.9305C104.614 61.9219 103.274 67.7899 98.7156 70.0246C95.4108 71.6446 93.6431 75.3152 94.437 78.9091C95.5322 83.8665 91.7795 88.5723 86.7026 88.6077C83.0222 88.6334 79.8369 91.1736 78.9929 94.756C77.8287 99.6977 72.4058 102.309 67.8163 100.138C64.4892 98.5646 60.5173 99.4712 58.2025 102.333C55.0095 106.28 48.9905 106.28 45.7975 102.333C43.4827 99.4712 39.5108 98.5646 36.1837 100.138C31.5942 102.309 26.1713 99.6977 25.0071 94.756C24.1631 91.1736 20.9778 88.6334 17.2974 88.6077C12.2205 88.5723 8.4678 83.8665 9.56296 78.9091C10.3569 75.3152 8.58923 71.6446 5.28442 70.0246C0.725699 67.7899 -0.61364 61.9219 2.52403 57.9305C4.79866 55.037 4.79866 50.963 2.52403 48.0695C-0.613641 44.0781 0.725699 38.2101 5.28442 35.9754C8.58923 34.3554 10.3569 30.6848 9.56296 27.0909C8.4678 22.1335 12.2205 17.4277 17.2974 17.3923C20.9778 17.3666 24.1631 14.8264 25.0071 11.244C26.1713 6.30231 31.5942 3.69079 36.1837 5.86164C39.5108 7.43538 43.4827 6.52882 45.7975 3.66735Z" fill="#619ACF"/>
<path d="M77.4889 35.5111L44.7028 69.0222L29.8 53.7899" stroke="#F3F6FC" stroke-width="8" stroke-linecap="round" stroke-linejoin="round"/>
</svg>
